<?xml version="1.0" standalone="no"?>
<!DOCTYPE svg PUBLIC "-//W3C//DTD SVG 20010904//EN"
 "http://www.w3.org/TR/2001/REC-SVG-20010904/DTD/svg10.dtd">
<svg version="1.0" xmlns="http://www.w3.org/2000/svg"
 width="1280.000000pt" height="813.000000pt" viewBox="0 0 1280.000000 813.000000"
 preserveAspectRatio="xMidYMid meet">
<g transform="translate(0.000000,813.000000) scale(0.100000,-0.100000)" stroke="none">
<path d="M4615 8120 c-27 -4 -95 -14 -150 -20 -298 -35 -568 -116 -851 -255
-725 -357 -1257 -1046 -1414 -1833 -40 -200 -51 -315 -51 -527 0 -234 19 -407
66 -606 8 -35 11 -67 7 -71 -4 -4 -47 -12 -97 -18 -534 -65 -1031 -307 -1410
-685 -368 -367 -611 -849 -679 -1350 -9 -66 -21 -150 -26 -187 -13 -86 -13
-231 0 -316 5 -37 17 -121 26 -187 102 -765 607 -1460 1309 -1805 242 -118
477 -192 720 -225 66 -8 153 -20 193 -25 93 -13 211 -13 304 0 40 5 126 16
190 25 562 76 1121 383 1484 818 43 51 82 93 88 95 6 1 47 -30 91 -69 672
-598 1572 -813 2440 -584 447 117 854 354 1190 691 62 63 116 114 120 114 4 0
57 -51 119 -112 661 -667 1611 -931 2521 -702 1035 260 1824 1144 1960 2197 8
61 19 148 25 192 13 101 13 237 0 323 -5 37 -14 110 -20 162 -51 454 -257 947
-550 1315 -92 116 -290 315 -405 408 -278 224 -616 399 -950 491 -273 75 -504
102 -802 93 l-202 -6 -6 67 c-28 293 -116 548 -269 775 -387 579 -1130 873
-1839 727 -192 -40 -427 -132 -570 -223 -32 -21 -63 -37 -70 -37 -8 0 -40 42
-72 94 -353 572 -905 985 -1555 1164 -261 73 -704 120 -865 92z"/>
</g>
</svg>
